<svg version="1.1" xmlns="http://www.w3.org/2000/svg" xmlns:xlink="http://www.w3.org/1999/xlink" width="96.89908" height="83.35166" viewBox="0,0,96.89908,83.35166"><defs><linearGradient x1="221.36468" y1="143.77919" x2="220.98813" y2="155.30757" gradientUnits="userSpaceOnUse" id="color-1"><stop offset="0" stop-color="#2bc314"/><stop offset="1" stop-color="#1e880e"/></linearGradient></defs><g transform="translate(-191.55108,-138.41379)"><g data-paper-data="{&quot;isPaintingLayer&quot;:true}" stroke-miterlimit="10" stroke-dasharray="" stroke-dashoffset="0" style="mix-blend-mode: normal"><path d="M199.28384,200.37265c-4.11431,-3.35746 -6.6592,-8.3401 -7.13276,-11.62852c-0.05897,-0.4095 1.99941,0.10233 1.99941,0.10233c0,0 -0.6722,-4.33662 -0.01953,-5.17791c0.66206,-0.85339 3.30015,1.45677 3.30015,1.45677l0.57909,-2.14793c0,0 2.43835,3.45081 2.96939,4.18271c1.27099,1.75176 2.65557,3.96739 4.51456,5.92584l1.30765,1.19809c0.1243,0.11499 0.25046,0.22947 0.37858,0.34334c9.00695,8.11941 15.82421,-3.2549 16.71962,-2.80966c0.89541,0.44524 3.84672,0.30455 1.7079,3.84227c-2.27308,3.4933 -9.32899,10.28665 -20.82917,7.22627c-2.68989,-0.59342 -5.4949,-2.5136 -5.4949,-2.5136z" fill="#36ff19" fill-rule="evenodd" stroke="#001026" stroke-width="1.2" stroke-linecap="round" stroke-linejoin="round"/><path d="M192.80043,189.13716c-0.05256,-0.36502 1.78218,0.09123 1.78218,0.09123c0,0 -0.77294,-4.16352 -0.19117,-4.91339c0.59012,-0.76067 3.11535,1.59657 3.11535,1.59657l0.51617,-1.91456c0,0 2.17343,3.07586 2.64676,3.72825c0.91853,1.26599 1.90363,2.80377 3.1267,4.27082c-0.01666,0.00654 -0.03328,0.01317 -0.04983,0.0199c-3.39449,0.21808 -5.54131,3.08619 -6.12486,6.07027c-2.76244,-2.8596 -4.46173,-6.45222 -4.82129,-8.94907z" fill="#ffffff" fill-rule="nonzero" stroke="#001026" stroke-width="0" stroke-linecap="butt" stroke-linejoin="miter"/><g fill-rule="evenodd" stroke-width="1.2"><path d="M209.6861,203.53809c7.41934,-10.03302 17.03075,-15.09165 17.03075,-15.09165l16.77777,8.09382c0,0 -7.9252,12.56233 -11.55051,14.07993c0,0 -9.02129,-0.92746 -12.81522,-3.03518" fill="#36ff19" stroke="none" stroke-linecap="butt" stroke-linejoin="miter"/><path d="M209.6861,203.53809c8.51533,-10.03302 17.03075,-15.09165 17.03075,-15.09165l16.77777,8.09382c0,0 -7.9252,12.56233 -11.55051,14.07993c0,0 -9.02129,-0.92746 -12.81522,-3.03518" fill="none" stroke="#001026" stroke-linecap="round" stroke-linejoin="round"/><path d="M238.77323,198.22647c-4.7214,9.78004 -15.09156,7.75658 -16.86213,3.87829c-1.77047,-3.87829 4.46852,-9.35844 7.84094,-10.87603c3.37242,-1.43333 12.47797,0 9.02119,6.99774z" fill="#ffffff" stroke="none" stroke-linecap="butt" stroke-linejoin="miter"/></g><g fill-rule="evenodd" stroke-width="1.2"><path d="M220.05626,206.48892c-2.61358,2.86656 -4.63704,6.99783 -6.57623,10.79177c-3.79393,7.25072 -12.47789,3.28816 -10.45452,-3.20381c1.60195,-4.80566 6.66059,-10.53879 6.66059,-10.53879" fill="#36ff19" stroke="none" stroke-linecap="butt" stroke-linejoin="miter"/><path d="M220.05626,206.48892c-2.61358,2.86656 -4.63704,6.99783 -6.57623,10.79177c-3.79393,7.25072 -12.47789,3.28816 -10.45452,-3.20381c1.60195,-4.80566 6.66059,-10.53879 6.66059,-10.53879" fill="none" stroke="#001026" stroke-linecap="round" stroke-linejoin="round"/></g><g fill-rule="evenodd" stroke-width="1.2"><path d="M236.74977,213.73963c-2.02345,5.05864 -6.49187,7.67232 -10.03292,6.23899c-3.03518,-1.18035 -3.6254,-5.5645 -1.51759,-9.35844c2.3607,-4.21553 6.49187,-6.66059 9.61142,-5.73313c2.95083,1.01173 3.62531,4.55278 1.9391,8.85257z" fill="#f9a41e" stroke="none" stroke-linecap="butt" stroke-linejoin="miter"/><path d="M236.74977,213.73963c-2.02345,5.05864 -6.49187,7.67232 -10.03292,6.23899c-3.03518,-1.18035 -3.6254,-5.5645 -1.51759,-9.35844c2.3607,-4.21553 6.49187,-6.66059 9.61142,-5.73313c2.95083,1.01173 3.62531,4.55278 1.9391,8.85257z" fill="#36ff19" stroke="#001026" stroke-linecap="round" stroke-linejoin="round"/></g><g fill-rule="evenodd" stroke-width="1.2"><path d="M262.12733,163.74346c4.80566,-3.54105 10.11728,-12.81522 11.55051,-16.44063c2.27643,-5.98601 11.29763,-1.18035 7.67232,6.74485c-3.54105,7.84094 -17.28373,15.09166 -17.28373,15.09166c-3.37242,2.02345 -6.57623,-1.85484 -1.9391,-5.39588z" fill="#f9a41e" stroke="none" stroke-linecap="butt" stroke-linejoin="miter"/><path d="M262.12733,163.74346c4.80566,-3.54105 10.11728,-12.81522 11.55051,-16.44063c2.27643,-5.98601 11.29763,-1.18035 7.67232,6.74485c-3.54105,7.84094 -17.28373,15.09166 -17.28373,15.09166c-3.37242,2.02345 -6.57623,-1.85484 -1.9391,-5.39588z" fill="#36ff19" stroke="#001026" stroke-linecap="round" stroke-linejoin="round"/></g><g fill-rule="evenodd" stroke-width="1.2"><path d="M221.9111,189.96403c0,0 -6.82911,-0.84311 -9.8643,5.31162c-2.52932,5.48014 -11.88776,3.2038 -7.5037,-4.63713c3.87829,-6.99774 13.74268,-5.31153 13.74268,-5.31153z" fill="#f9a41e" stroke="none" stroke-linecap="butt" stroke-linejoin="miter"/><path d="M221.9111,189.96403c0,0 -6.82911,-0.84311 -9.8643,5.31162c-2.52932,5.48014 -11.46625,3.45669 -7.5037,-4.63713c3.37242,-6.99774 13.74268,-5.31153 13.74268,-5.31153z" fill="#36ff19" stroke="#001026" stroke-linecap="round" stroke-linejoin="round"/></g><g fill="#231f20" fill-rule="evenodd" stroke="#231f20" stroke-width="0.63175" stroke-linecap="round" stroke-linejoin="round" opacity="0.1"><path d="M222.58558,191.39736c-0.67448,0.50586 -1.43323,1.09599 -2.27634,1.68621"/><path d="M242.4829,198.05785c-0.33725,0.50586 -0.8431,1.2647 -1.43323,2.02345"/></g><path d="M255.66355,138.92362c0.30637,-0.1901 0.80284,-0.07383 0.88972,0.32922l2.2493,10.77918c0,0 6.24316,4.90642 8.03441,8.26669c3.01874,5.60154 2.97178,10.1024 2.97178,10.1024c0,0 7.02766,2.33067 8.04094,8.06681c1.01328,5.73613 -3.73695,16.38674 -22.64772,19.47102c-18.91077,3.08428 -33.83623,-2.50594 -40.56028,-14.13165c-6.36282,-11.00115 3.71651,-23.43626 4.28759,-24.0797l-0.70469,-8.35608c2.79215,-0.81491 5.30196,-2.58567 7.02145,-5.15587l4.82083,3.37697c0,0 4.5531,-1.55219 9.25713,-1.59865c2.80504,-0.10849 5.19722,0.16976 7.48294,0.64463zM218.92931,157.72759l0.00057,0.00685c0.03361,-0.04191 0.03185,-0.04338 -0.00057,-0.00685z" fill="#36ff19" fill-rule="nonzero" stroke="#001026" stroke-width="1.2" stroke-linecap="butt" stroke-linejoin="miter"/><path d="M269.49588,168.79111c0,0 6.83756,2.0243 7.85084,7.76043c1.01328,5.73613 -4.12042,15.87395 -22.82803,18.86482c-24.35033,4.2073 -35.3741,-10.56044 -28.33163,-20.93607c7.04574,-10.47557 18.24254,-1.005 26.65765,-1.33045c7.21249,-0.26468 8.21773,-6.5352 16.65117,-4.35873z" fill="#ffffff" fill-rule="evenodd" stroke="none" stroke-width="1" stroke-linecap="butt" stroke-linejoin="miter"/><path d="M287.85016,170.4912c-4.82155,3.64454 -12.02098,3.50943 -12.02098,3.50943" fill="none" fill-rule="evenodd" stroke="#001026" stroke-width="1.2" stroke-linecap="round" stroke-linejoin="round"/><path d="M286.18522,181.64279c-6.31297,0.29406 -10.14886,-1.73224 -10.14886,-1.73224" fill="none" fill-rule="evenodd" stroke="#001026" stroke-width="1.2" stroke-linecap="round" stroke-linejoin="round"/><path d="M252.5298,170.53817c2.09888,0.06856 4.29118,0.34027 4.36828,1.04316c0.05424,1.40252 -1.53637,4.15205 -3.13878,4.19977c-1.80557,0.14113 -5.92172,-2.49465 -5.86948,-4.09379c-0.06077,-1.20263 2.64105,-1.21443 4.63998,-1.14914z" fill="#001026" fill-rule="evenodd" stroke="#001026" stroke-width="1.2" stroke-linecap="round" stroke-linejoin="round"/><path d="M207.60276,167.5699c0,0 8.50401,3.07926 11.90094,6.29187" fill="none" fill-rule="evenodd" stroke="#001026" stroke-width="1.2" stroke-linecap="round" stroke-linejoin="round"/><path d="M219.68928,177.3697c-4.35321,1.55872 -11.71335,0.21773 -11.71335,0.21773" fill="none" fill-rule="evenodd" stroke="#001026" stroke-width="1.2" stroke-linecap="round" stroke-linejoin="round"/><path d="M264.70547,159.22962c2.75155,4.59228 2.685,9.69282 -0.17227,11.40045c-2.85727,1.70763 -7.38626,-0.54142 -10.23776,-5.13696c-2.75155,-4.59228 -2.685,-9.69282 0.17227,-11.40045c2.86054,-1.80758 7.48621,0.54468 10.23776,5.13696z" fill="#ffffff" fill-rule="evenodd" stroke="#001026" stroke-width="1.2" stroke-linecap="round" stroke-linejoin="round"/><path d="M264.15253,160.84595c-0.03591,1.09941 -0.86487,1.97282 -1.86433,1.94018c-0.99946,-0.03265 -1.76966,-0.95829 -1.73375,-2.0577c0.03591,-1.09941 0.86487,-1.97281 1.86434,-1.94017c0.99946,0.03265 1.76966,0.95828 1.73375,2.05769" fill="#001026" fill-rule="evenodd" stroke="none" stroke-width="1" stroke-linecap="butt" stroke-linejoin="miter"/><path d="M239.82728,161.21851c2.85476,4.49559 2.47858,9.88618 -0.28201,11.69703c-3.36027,1.79126 -7.71222,0.24836 -10.56698,-4.24723c-2.11476,-3.21994 -2.723,-7.05698 -1.73562,-9.74738c2.25147,0.42625 12.48656,2.14317 12.58461,2.29758z" fill="#ffffff" fill-rule="evenodd" stroke="#001026" stroke-width="1.2" stroke-linecap="round" stroke-linejoin="round"/><path d="M239.39048,163.62265c-0.03591,1.09941 -0.86487,1.97281 -1.86433,1.94017c-0.99946,-0.03265 -1.76966,-0.95828 -1.73375,-2.05769c0.03591,-1.09941 0.86487,-1.97282 1.86433,-1.94017c0.9962,0.1326 1.76966,0.95828 1.73374,2.0577" fill="#001026" fill-rule="evenodd" stroke="none" stroke-width="1" stroke-linecap="butt" stroke-linejoin="miter"/><path d="M224.79975,144.81672c-0.36386,0.52399 -5.75676,8.97238 -7.9126,12.35152c-0.54316,0.85136 -0.68848,0.52676 -0.42586,-0.64254c0.55843,-2.48641 1.43454,-6.3977 1.45445,-6.55102c0.11112,-0.85575 0.14906,-1.51319 1.06602,-2.12882c1.46583,-0.98411 4.32802,-3.34289 5.15014,-3.7777c0.78741,-0.41646 1.24458,-0.08197 0.66786,0.74856z" fill="url(#color-1)" fill-rule="nonzero" stroke="#001026" stroke-width="1.2" stroke-linecap="round" stroke-linejoin="miter"/><path d="M246.85837,185.68229c0,0 -2.21536,0.14296 -3.33214,-0.0282c-0.98689,-0.15126 -3.02715,-0.94645 -3.02715,-0.94645" fill="none" fill-rule="nonzero" stroke="#001026" stroke-width="1.2" stroke-linecap="round" stroke-linejoin="miter"/></g></g></svg>