<svg version="1.1" xmlns="http://www.w3.org/2000/svg" xmlns:xlink="http://www.w3.org/1999/xlink" width="92.26521" height="105.14352" viewBox="0,0,92.26521,105.14352"><defs><linearGradient x1="218.21053" y1="134.00056" x2="218.21053" y2="145.53509" gradientUnits="userSpaceOnUse" id="color-1"><stop offset="0" stop-color="#2bc314"/><stop offset="1" stop-color="#1e880e"/></linearGradient></defs><g transform="translate(-193.86739,-127.52863)"><g data-paper-data="{&quot;isPaintingLayer&quot;:true}" stroke-miterlimit="10" stroke-dasharray="" stroke-dashoffset="0" style="mix-blend-mode: normal"><path d="M243.36453,186.33489c0.6514,-0.35267 2.35508,0.42714 2.75234,1.85664c0.24318,0.87505 0.45928,1.74461 0.52403,2.27407c0.16784,1.3723 -0.37555,3.15349 -0.37555,3.15349c-0.91791,2.23549 -5.13802,3.73238 -5.80247,4.63155c-0.15008,0.27835 2.10026,5.29989 3.4222,8.31195c1.92096,4.2332 -3.92384,7.94377 -7.36609,4.86628c-3.16391,-2.92741 -6.00761,-11.64597 -6.08789,-13.62929c-0.25594,-4.08144 7.09005,-8.30102 12.93344,-11.46469z" fill="#36ff19" fill-rule="evenodd" stroke="#001026" stroke-width="1.2" stroke-linecap="round" stroke-linejoin="round"/><path d="M196.2919,196.04907c-2.16775,-4.84778 -2.2033,-10.44259 -1.14928,-13.5933c0.13126,-0.39235 1.74038,0.98954 1.74038,0.98954c0,0 1.34739,-4.17644 2.30841,-4.63491c0.97484,-0.46506 2.29411,2.78392 2.29411,2.78392l1.48221,-1.65892c0,0 0.62845,4.17836 0.77414,5.0708c0.34868,2.136 0.59048,4.73746 1.37166,7.32225l0.63014,1.6578c0.0594,0.15857 0.1207,0.31752 0.18401,0.47681c4.4,11.3 15.6,4.2 16.2,5c0.6,0.8 3.3,2 -0.2,4.2c-3.6,2.1 -12.95551,5 -21.85551,-2.9c-2.13669,-1.73845 -3.78027,-4.71399 -3.78027,-4.71399z" fill="#36ff19" fill-rule="evenodd" stroke="#001026" stroke-width="1.2" stroke-linecap="round" stroke-linejoin="round"/><path d="M195.54623,183.0986c0.117,-0.34973 1.55129,0.88204 1.55129,0.88204c0,0 1.17963,-4.06704 2.03624,-4.47568c0.86892,-0.41454 2.06621,2.82581 2.06621,2.82581l1.32116,-1.47868c0,0 0.56018,3.72437 0.69003,4.51985c0.25198,1.54368 0.44135,3.36008 0.87511,5.22019c-0.01782,-0.00164 -0.03565,-0.00318 -0.05346,-0.0046c-3.13072,-1.32992 -6.33709,0.26823 -8.19887,2.67219c-1.18357,-3.79573 -1.08801,-7.76881 -0.2877,-10.1611z" fill="#ffffff" fill-rule="nonzero" stroke="#001026" stroke-width="0" stroke-linecap="butt" stroke-linejoin="miter"/><path d="M226.82768,209.86306c-0.7,0.9 -2.7,4.4 -7.5,7.4c-3.3,2.1 -11.8,-1.4 -11.8,-1.4c0.9,9.2 -6.6,9 -8,6c-1.1,-2.4 -0.9,-12.7 1.3,-13.5c3.4,-1.2 8,0.8 12.1,0.8c1.2,0 2.5,-2.6 5.3,-5.4c2,-2 4.6,-5.7 8.8,-3.1c3.6,2.3 1.7,6.5 -0.2,9.2z" fill="#36ff19" fill-rule="evenodd" stroke="#001026" stroke-width="1.2" stroke-linecap="round" stroke-linejoin="round"/><g fill-rule="evenodd"><path d="M241.52768,211.66306c0.6,3.3 -4.2,10.8 -4.2,10.8c0,0 6,4.1 2.2,8.3c-2.8,3.1 -5,0.6 -12.3,-6.5c-1.1,-1.1 -1.1,-2.7 -0.2,-3.8c2.1,-2.4 5.1,-6.5 3.1,-8.4c-2.8,-2 -6,-4 -8,-5.2c-8.2,-4.8 -2.2,-10.7 2.3,-19c2.4,-4.5 3.6,-3.3 9.6,-2.1c3.4,0.5 5.4,0.8 7.6,0.7c3.3,-0.1 2.7,4.7 1.8,7.2c0,0 -1.4,3.7 -2.7,5.6c-1.6,2.4 -3.4,4.8 -4.6,5.7c0,0 4.7,3.5 5.4,6.7z" fill="#36ff19" stroke="#001026" stroke-width="1.2" stroke-linecap="round" stroke-linejoin="round"/><path d="M235.35608,204.86596c0,0 -1.5,-1.2 -3.1,-2.7c-2,-1.8 -4,-3.3 -2,-6.4c1.8,-2.4 3.5,-5.6 8,-2.7c4.3,2.7 2.4,5.2 2.4,5.2c-2.2,4.5 -5.3,6.6 -5.3,6.6z" fill="#ffffff" stroke="none" stroke-width="1" stroke-linecap="butt" stroke-linejoin="miter"/></g><path d="M226.22768,191.86306c-2.2,1 -6.3,-0.8 -7.4,-0.6c-0.3,0.1 -2.1,5.3 -3.2,8.4c-1.5,4.4 -8.3,3.1 -8.7,-1.5c-0.3,-4.3 3.6,-12.6 4.9,-14.1c2.9,-3.5 12.7592,-0.6917 19.3463,1.0565" fill="#36ff19" fill-rule="evenodd" stroke="#001026" stroke-width="1.2" stroke-linecap="round" stroke-linejoin="round"/><path d="M252.33261,128.02786c0.3,-0.2 0.8,-0.1 0.9,0.3l2.6,10.7c0,0 6.4,4.7 8.3,8c3.2,5.5 3.3,10 3.3,10c0,0 7.1,2.1 8.3,7.8c1.2,5.7 -3.2,16.5 -22,20.2c-18.8,3.7 -33.9,-1.4 -41,-12.8c-6.71857,-10.78756 2.94943,-23.54509 3.4992,-24.20683l-0.9771,-8.32862c2.76406,-0.90563 5.21472,-2.75738 6.84939,-5.38234l4.92851,3.21779c0,0 4.5,-1.7 9.2,-1.9c2.8,-0.2 5.2,0 7.5,0.4zM216.23181,148.02103l0.0008,0.00683c0.03223,-0.04298 0.03041,-0.0444 -0.0008,-0.00683z" fill="#36ff19" fill-rule="nonzero" stroke="#001026" stroke-width="1.2" stroke-linecap="butt" stroke-linejoin="miter"/><path d="M267.13261,157.42786c0,0 6.9,1.8 8.1,7.5c1.2,5.7 -3.6,16 -22.2,19.6c-24.2,5 -35.7,-9.4 -29,-20c6.7,-10.7 18.2,-1.6 26.6,-2.2c7.2,-0.5 8,-6.8 16.5,-4.9z" fill="#ffffff" fill-rule="evenodd" stroke="none" stroke-width="1" stroke-linecap="butt" stroke-linejoin="miter"/><path d="M285.53261,158.52786c-4.7,3.8 -11.9,3.9 -11.9,3.9" fill="none" fill-rule="evenodd" stroke="#001026" stroke-width="1.2" stroke-linecap="round" stroke-linejoin="round"/><path d="M284.23261,169.72786c-6.3,0.5 -10.2,-1.4 -10.2,-1.4" fill="none" fill-rule="evenodd" stroke="#001026" stroke-width="1.2" stroke-linecap="round" stroke-linejoin="round"/><path d="M250.23261,159.72786c2.1,0 4.3,0.2 4.4,0.9c0.1,1.4 -1.4,4.2 -3,4.3c-1.8,0.2 -6,-2.3 -6,-3.9c-0.1,-1.2 2.6,-1.3 4.6,-1.3z" fill="#001026" fill-rule="evenodd" stroke="#001026" stroke-width="1.2" stroke-linecap="round" stroke-linejoin="round"/><path d="M205.23261,158.22786c0,0 8.6,2.8 12.1,5.9" fill="none" fill-rule="evenodd" stroke="#001026" stroke-width="1.2" stroke-linecap="round" stroke-linejoin="round"/><path d="M217.63261,167.62786c-4.3,1.7 -11.7,0.6 -11.7,0.6" fill="none" fill-rule="evenodd" stroke="#001026" stroke-width="1.2" stroke-linecap="round" stroke-linejoin="round"/><g fill-rule="evenodd"><path d="M262.03261,148.02786c2.9,4.5 3,9.6 0.2,11.4c-2.8,1.8 -7.4,-0.3 -10.4,-4.8c-2.9,-4.5 -3,-9.6 -0.2,-11.4c2.8,-1.9 7.5,0.3 10.4,4.8z" fill="#ffffff" stroke="#001026" stroke-width="1.2" stroke-linecap="round" stroke-linejoin="round"/><path d="M261.63261,153.72786c0,1.1 -0.8,2 -1.8,2c-1,0 -1.8,-0.9 -1.8,-2c0,-1.1 0.8,-2 1.8,-2c1,0 1.8,0.9 1.8,2" fill="#001026" stroke="none" stroke-width="1" stroke-linecap="butt" stroke-linejoin="miter"/></g><g fill-rule="evenodd"><path d="M237.23261,150.82786c3,4.4 2.8,9.8 0.1,11.7c-3.3,1.9 -7.7,0.5 -10.7,-3.9c-3.1,-4.4 -3.3,-10.1 -0.2,-12.3c3.1,-2.3 7.8,0.1 10.8,4.5z" fill="#ffffff" stroke="#001026" stroke-width="1.2" stroke-linecap="round" stroke-linejoin="round"/><path d="M236.63261,156.62786c0,1.1 -0.8,2 -1.8,2c-1,0 -1.8,-0.9 -1.8,-2c0,-1.1 0.8,-2 1.8,-2c1,0.1 1.8,0.9 1.8,2" fill="#001026" stroke="none" stroke-width="1" stroke-linecap="butt" stroke-linejoin="miter"/></g><path d="M221.67764,134.9254c-0.34656,0.53559 -5.46078,9.15553 -7.50516,12.60325c-0.51507,0.86864 -0.67091,0.54896 -0.44661,-0.62829c0.47696,-2.50332 1.22492,-6.44112 1.23981,-6.59501c0.08312,-0.85892 0.09958,-1.51725 0.99596,-2.16248c1.43292,-1.03144 4.21658,-3.4824 5.02407,-3.94382c0.77339,-0.44194 1.24124,-0.12256 0.69194,0.72636z" fill="url(#color-1)" fill-rule="nonzero" stroke="#001026" stroke-width="1.2" stroke-linecap="round" stroke-linejoin="miter"/><path d="M245.0586,175.04906c0,0 -2.20952,0.21521 -3.33129,0.0806c-0.9913,-0.11896 -3.05644,-0.84713 -3.05644,-0.84713" fill="none" fill-rule="nonzero" stroke="#001026" stroke-width="1.2" stroke-linecap="round" stroke-linejoin="miter"/></g></g></svg>