<svg version="1.1" xmlns="http://www.w3.org/2000/svg" xmlns:xlink="http://www.w3.org/1999/xlink" width="110.47395" height="58.96309" viewBox="0,0,110.47395,58.96309"><defs><linearGradient x1="228.1515" y1="155.97347" x2="227.77495" y2="167.50185" gradientUnits="userSpaceOnUse" id="color-1"><stop offset="0" stop-color="#2bc314"/><stop offset="1" stop-color="#1e880e"/></linearGradient></defs><g transform="translate(-184.76302,-150.60807)"><g data-paper-data="{&quot;isPaintingLayer&quot;:true}" stroke-miterlimit="10" stroke-dasharray="" stroke-dashoffset="0" style="mix-blend-mode: normal"><g stroke="#001026"><path d="M212.53425,191.18203c0.54134,0.712 1.66962,2.26988 -1.98454,4.26164c-3.65416,1.99176 -10.15476,-0.42531 -10.87263,-0.77838c-2.8259,-1.2784 -6.2358,-2.95548 -9.38677,-6.06536c-5.50196,-5.37697 -5.68237,-14.62508 -3.97583,-18.91988c0.14923,-0.37557 1.64395,1.05925 1.64395,1.05925c0,0 1.54001,-4.00057 2.50212,-4.39577c0.97595,-0.40087 2.08698,2.83931 2.08698,2.83931l1.53536,-1.53784c0,0 0.38701,4.10929 0.48084,4.9876c0.29646,2.77502 0.36739,6.33111 1.72276,9.66686c1.18268,3.03336 3.43191,5.0311 5.36486,6.53898c2.78616,2.03894 10.29596,1.49772 10.8829,2.34359z" fill="#36ff19" fill-rule="evenodd" stroke-width="1.2" stroke-linecap="round" stroke-linejoin="round"/><path d="M186.67338,170.32884c0.13302,-0.33477 1.46533,0.94417 1.46533,0.94417c0,0 1.37047,-3.90293 2.22805,-4.25518c0.86991,-0.35732 1.86243,2.86784 1.86243,2.86784l1.36855,-1.37076c0,0 0.34496,3.66281 0.42859,4.44569c0.16229,1.51923 0.24877,3.30108 0.57125,5.13876c-0.01729,-0.00257 -0.0346,-0.00503 -0.0519,-0.00738c-2.98158,-1.46641 -6.1953,-0.08106 -8.14116,2.16292c-0.94913,-3.76611 -0.64107,-7.63604 0.26887,-9.92605z" fill="#ffffff" fill-rule="nonzero" stroke-width="0" stroke-linecap="butt" stroke-linejoin="miter"/></g><g fill-rule="evenodd" stroke-width="1.2"><path d="M262.74817,198.3739c5.72032,1.82384 16.41477,0.74609 20.31125,-0.24869c6.21771,-1.57524 7.54417,8.6219 -1.07775,10.36278c-8.70488,1.74097 -22.71545,-5.30579 -22.71545,-5.30579c-3.56482,-1.65801 -2.32124,-6.63224 3.48195,-4.8083z" fill="#f9a41f" stroke="none" stroke-linecap="butt" stroke-linejoin="miter"/><path d="M262.74817,198.3739c5.72032,1.82384 16.41477,0.74609 20.31125,-0.24869c6.21771,-1.57524 7.54417,8.6219 -1.07775,10.36278c-8.70488,1.74097 -22.71545,-5.30579 -22.71545,-5.30579c-3.56482,-1.65801 -2.32124,-6.63224 3.48195,-4.8083z" fill="#36ff19" stroke="#001026" stroke-linecap="round" stroke-linejoin="round"/></g><g fill-rule="evenodd" stroke-width="1.2"><path d="M218.72669,188.6372c-1.24358,-1.65801 -2.6529,-3.06733 -4.311,-4.22804c-0.74609,-2.98446 -0.82906,-6.0519 -0.16583,-9.03645c2.57003,2.73586 4.8084,5.72033 6.7152,9.03645c1.65801,2.48717 0.16583,7.2126 -2.23837,4.22804z" fill="#231f20" stroke="#231f20" stroke-linecap="round" stroke-linejoin="round" opacity="0.1"/><path d="M218.72669,188.50841c-6.9639,-8.87061 -12.18673,-5.13996 -16.16608,-9.20227c-3.23326,-3.23316 -1.24358,-10.36279 7.04667,-7.29547c5.72032,2.1555 11.27481,12.2697 11.27481,12.2697c1.74097,2.6529 0.24879,7.29547 -2.15541,4.22804z" fill="#f9a41f" stroke="none" stroke-linecap="butt" stroke-linejoin="miter"/><path d="M218.72669,188.50841c-6.9639,-8.87061 -12.18673,-5.13996 -16.16608,-9.20227c-3.23326,-3.23316 -1.24358,-10.36279 7.04667,-7.29547c5.72032,2.1555 11.27481,12.2697 11.27481,12.2697c1.74097,2.6529 0.24879,7.29547 -2.15541,4.22804z" fill="#36ff19" stroke="#001026" stroke-linecap="round" stroke-linejoin="round"/></g><g fill-rule="evenodd" stroke-width="1.2"><path d="M235.30729,201.10966c0,0 -9.45097,4.14517 -25.78287,4.5597c-15.91738,0.41452 -23.7932,-2.90159 -22.71545,-7.54416c1.24358,-5.63745 6.38354,-3.23326 9.78263,-2.57004c3.15029,0.41452 6.38345,0 9.368,-1.32645l-0.08286,-4.311c0.08286,-0.08286 30.42534,-4.47673 29.43056,11.19195z" fill="#36ff19" stroke="none" stroke-linecap="butt" stroke-linejoin="miter"/><path d="M230.74759,198.3739c-0.66323,1.57514 -11.27481,4.55961 -17.40966,3.56482c-2.6529,-0.41452 -4.8083,-2.6529 -2.48707,-4.97423c3.48195,-3.56482 15.08832,-3.15029 15.08832,-3.15029z" fill="#ffffff" stroke="none" stroke-linecap="butt" stroke-linejoin="miter"/><path d="M235.30729,201.10966c0,0 -9.45097,4.14517 -25.78287,4.5597c-15.91738,0.41452 -23.7932,-2.07263 -22.71545,-7.54416c1.07775,-5.72032 6.38354,-3.15039 9.78263,-2.57004c2.98446,0.41452 5.96901,0.66323 8.95347,0.66323l0.33166,-6.30067c0.08286,-0.08286 30.42534,-4.47674 29.43056,11.19194z" fill="none" stroke="#001026" stroke-linecap="round" stroke-linejoin="round"/></g><g fill-rule="evenodd" stroke-width="1.2"><path d="M212.26018,192.28498c-0.66323,2.98446 -4.64256,5.13997 -8.78764,4.8084c-4.14517,-0.33166 -6.88094,-2.98456 -6.13485,-5.96902c0.74609,-2.98455 4.64257,-5.14006 8.78775,-4.89127c4.14508,0.33157 6.88094,3.06733 6.13475,6.05188z" fill="#f9a41f" stroke="none" stroke-linecap="butt" stroke-linejoin="miter"/><path d="M212.26018,192.28498c-0.66323,2.98446 -4.64256,5.13997 -8.78764,4.8084c-4.14517,-0.33166 -6.88094,-2.98456 -6.13485,-5.96902c0.74609,-2.98455 4.64257,-5.14006 8.78775,-4.89127c4.14508,0.33157 6.88094,3.06733 6.13475,6.05188z" fill="#36ff19" stroke="#001026" stroke-linecap="round" stroke-linejoin="round"/></g><g><path d="M262.45037,151.1179c0.30637,-0.1901 0.80284,-0.07383 0.88972,0.32922l2.2493,10.77918c0,0 6.24316,4.90642 8.03441,8.26669c3.01874,5.60154 2.97178,10.1024 2.97178,10.1024c0,0 7.02766,2.33067 8.04094,8.06681c1.01328,5.73613 -3.73695,16.38674 -22.64772,19.47102c-18.91077,3.08428 -33.83623,-2.50594 -40.56028,-14.13165c-6.36282,-11.00115 3.71651,-23.43626 4.28759,-24.0797l-0.70469,-8.35608c2.79215,-0.81491 5.30196,-2.58567 7.02145,-5.15587l4.82083,3.37697c0,0 4.5531,-1.55219 9.25713,-1.59865c2.80504,-0.10849 5.19722,0.16976 7.48294,0.64463zM225.71613,169.92187l0.00057,0.00685c0.03361,-0.04191 0.03185,-0.04338 -0.00057,-0.00685z" fill="#36ff19" fill-rule="nonzero" stroke="#001026" stroke-width="1.2" stroke-linecap="butt" stroke-linejoin="miter"/><path d="M276.2827,180.98539c0,0 6.83756,2.0243 7.85084,7.76043c1.01328,5.73613 -4.12042,15.87395 -22.82803,18.86482c-24.35033,4.2073 -35.3741,-10.56044 -28.33163,-20.93607c7.04574,-10.47557 18.24254,-1.005 26.65765,-1.33045c7.21249,-0.26468 8.21773,-6.5352 16.65117,-4.35873z" fill="#ffffff" fill-rule="evenodd" stroke="none" stroke-width="1" stroke-linecap="butt" stroke-linejoin="miter"/><path d="M294.63698,182.68548c-4.82155,3.64454 -12.02098,3.50943 -12.02098,3.50943" fill="none" fill-rule="evenodd" stroke="#001026" stroke-width="1.2" stroke-linecap="round" stroke-linejoin="round"/><path d="M292.97204,193.83707c-6.31297,0.29406 -10.14886,-1.73224 -10.14886,-1.73224" fill="none" fill-rule="evenodd" stroke="#001026" stroke-width="1.2" stroke-linecap="round" stroke-linejoin="round"/><path d="M259.31662,182.73245c2.09888,0.06856 4.29118,0.34027 4.36828,1.04316c0.05424,1.40252 -1.53637,4.15205 -3.13878,4.19977c-1.80557,0.14113 -5.92172,-2.49465 -5.86948,-4.09379c-0.06077,-1.20263 2.64105,-1.21443 4.63998,-1.14914z" fill="#001026" fill-rule="evenodd" stroke="#001026" stroke-width="1.2" stroke-linecap="round" stroke-linejoin="round"/><path d="M214.38958,179.76418c0,0 8.50401,3.07926 11.90094,6.29187" fill="none" fill-rule="evenodd" stroke="#001026" stroke-width="1.2" stroke-linecap="round" stroke-linejoin="round"/><path d="M226.4761,189.56398c-4.35321,1.55872 -11.71335,0.21773 -11.71335,0.21773" fill="none" fill-rule="evenodd" stroke="#001026" stroke-width="1.2" stroke-linecap="round" stroke-linejoin="round"/><path d="M271.49229,171.4239c2.75155,4.59228 2.685,9.69282 -0.17227,11.40045c-2.85727,1.70763 -7.38626,-0.54142 -10.23776,-5.13696c-2.75155,-4.59228 -2.685,-9.69282 0.17227,-11.40045c2.86054,-1.80758 7.48621,0.54468 10.23776,5.13696z" fill="#ffffff" fill-rule="evenodd" stroke="#001026" stroke-width="1.2" stroke-linecap="round" stroke-linejoin="round"/><path d="M271.96475,176.11643c-0.03591,1.09941 -0.86487,1.97282 -1.86433,1.94018c-0.99946,-0.03265 -1.76966,-0.95829 -1.73375,-2.0577c0.03591,-1.09941 0.86487,-1.97281 1.86434,-1.94017c0.99946,0.03265 1.76966,0.95828 1.73375,2.05769" fill="#001026" fill-rule="evenodd" stroke="none" stroke-width="1" stroke-linecap="butt" stroke-linejoin="miter"/><path d="M246.6141,173.41279c2.85476,4.49559 2.47858,9.88618 -0.28201,11.69703c-3.36027,1.79126 -7.71222,0.24836 -10.56698,-4.24723c-2.11476,-3.21994 -2.723,-7.05698 -1.73562,-9.74738c2.25147,0.42625 12.48656,2.14317 12.58461,2.29758z" fill="#ffffff" fill-rule="evenodd" stroke="#001026" stroke-width="1.2" stroke-linecap="round" stroke-linejoin="round"/><path d="M247.2027,178.89313c-0.03591,1.09941 -0.86487,1.97281 -1.86433,1.94017c-0.99946,-0.03265 -1.76966,-0.95828 -1.73375,-2.05769c0.03591,-1.09941 0.86487,-1.97282 1.86433,-1.94017c0.9962,0.1326 1.76966,0.95828 1.73374,2.0577" fill="#001026" fill-rule="evenodd" stroke="none" stroke-width="1" stroke-linecap="butt" stroke-linejoin="miter"/><path d="M231.58657,157.011c-0.36386,0.52399 -5.75676,8.97238 -7.9126,12.35152c-0.54316,0.85136 -0.68848,0.52676 -0.42586,-0.64254c0.55843,-2.48641 1.43454,-6.3977 1.45445,-6.55102c0.11112,-0.85575 0.14906,-1.51319 1.06602,-2.12882c1.46583,-0.98411 4.32802,-3.34289 5.15014,-3.7777c0.78741,-0.41646 1.24458,-0.08197 0.66786,0.74856z" fill="url(#color-1)" fill-rule="nonzero" stroke="#001026" stroke-width="1.2" stroke-linecap="round" stroke-linejoin="miter"/><path d="M253.64519,197.87657c0,0 -2.21536,0.14296 -3.33214,-0.0282c-0.98689,-0.15126 -3.02715,-0.94645 -3.02715,-0.94645" fill="none" fill-rule="nonzero" stroke="#001026" stroke-width="1.2" stroke-linecap="round" stroke-linejoin="miter"/></g></g></g></svg>