<svg version="1.1" xmlns="http://www.w3.org/2000/svg" xmlns:xlink="http://www.w3.org/1999/xlink" width="96.41769" height="99.43762" viewBox="0,0,96.41769,99.43762"><defs><linearGradient x1="220.28696" y1="136.85351" x2="220.28696" y2="148.38804" gradientUnits="userSpaceOnUse" id="color-1"><stop offset="0" stop-color="#2bc314"/><stop offset="1" stop-color="#1e880e"/></linearGradient></defs><g transform="translate(-191.79135,-130.38158)"><g data-paper-data="{&quot;isPaintingLayer&quot;:true}" stroke-miterlimit="10" stroke-dasharray="" stroke-dashoffset="0" style="mix-blend-mode: normal"><path d="M244.15209,199.4376c0.95717,0.88533 2.21854,2.33411 3.49778,3.6845c2.13802,2.21785 4.96512,6.79688 -0.27609,7.67423c-4.20369,0.76091 -7.24527,-2.63744 -10.92195,-6.45608c-1.86073,-2.06584 -4.06139,-4.49834 -2.62181,-7.38756c1.60946,-3.26491 8.2179,-12.22809 13.43307,-7.9267c3.71243,3.62186 -0.25839,6.4578 -2.92341,8.8195c-0.38454,0.43833 -0.39339,1.04654 -0.18758,1.59211z" data-paper-data="{&quot;index&quot;:null}" fill="#36ff19" fill-rule="evenodd" stroke="#001026" stroke-width="1.2" stroke-linecap="round" stroke-linejoin="round"/><path d="M225.40904,200.98081c0.8,0.4 2.5,1.3 0.1,4.7c-2.4,3.4 -9.3,4.1 -10.1,4.1c-3.1,0.1 -6.9,0.1 -11.1,-1.3c-7.31019,-2.39678 -11.55359,-10.61588 -11.91769,-15.22294c-0.03184,-0.40288 1.94267,0.22498 1.94267,0.22498c0,0 -0.38368,-4.26954 0.30525,-5.04878c0.69884,-0.79044 3.12582,1.62678 3.12582,1.62678l0.69904,-2.05758c0,0 2.16085,3.51664 2.63268,4.26337c1.49074,2.35931 3.12381,5.51903 5.81223,7.91417c2.4,2.2 5.3,3 7.7,3.5c3.4,0.6 9.9,-3.2 10.8,-2.7z" fill="#36ff19" fill-rule="evenodd" stroke="#001026" stroke-width="1.2" stroke-linecap="round" stroke-linejoin="round"/><path d="M230.40904,211.38081c-1.8,1.2 -8,5.6 -15.9,8.1l-0.4,0.1c-0.4,0.1 -0.6,0.6 -0.4,1c1.7,2.4 4.59649,6.79298 -0.90351,8.49298c-5.3,1.7 -14.99649,-11.99298 -10.79649,-15.69298c1.9,-1.4 3.6,-0.7 4.5,-0.3c0.5,0.2 1,0.2 1.5,0.1c1.2,-0.4 3.4,-1.2 5.1,-2.1c4.3,-2.2 5.3,-3.1 7.3,-4.6c2,-1.5 6.6,-5.2 10.3,-2c3.2,2.7 1.4,5.7 -0.3,6.9z" fill="#36ff19" fill-rule="evenodd" stroke="#001026" stroke-width="1.2" stroke-linecap="round" stroke-linejoin="round"/><path d="M246.40904,213.88081c2.1,1.9 6.7,5.8 6.7,5.8c0,0 14.3,-2.5 14.3,4.7c0,4.3 -7.2,5.3 -16.9,4.4c-0.6,-0.1 -1.2,-0.3 -1.7,-0.7c-2.2,-1.9 -8.5,-7.5 -12.5,-11.4c-5.9,-5.8 -10.8,-9.6 -10.8,-9.6c-8.5,-8.3 -1.6,-11.8 1.1,-16.6c2.5,-4.1 3.6,-3.3 9.6,-2.1c3.4,0.5 5.4,0.8 7.6,0.7c3.3,-0.1 2.7,4.7 1.8,7.2c0,0 -1.4,3.7 -2.7,5.6c-1.6,2.3 -2.8,3.8 -4,4.7z" fill="#36ff19" fill-rule="evenodd" stroke="#001026" stroke-width="1.2" stroke-linecap="round" stroke-linejoin="round"/><path d="M238.00904,206.48081c0,0 -1.5,-1.2 -3.1,-2.7c-2,-1.8 -4,-3.3 -2,-6.4c1.8,-2.4 3.5,-5.6 8,-2.7c4.3,2.7 2.4,5.2 2.4,5.2c-2.2,4.5 -5.3,6.6 -5.3,6.6z" fill="#ffffff" fill-rule="evenodd" stroke="none" stroke-width="1" stroke-linecap="butt" stroke-linejoin="miter"/><path d="M222.90904,198.28081c2.2,2.8 5.6,6.3 1.3,9.2c-5.9,3.3 -10.8,-6.7 -11.8,-10.2c-0.9,-3.1 1.7,-5.1 3.9,-6.8c4.3,-3.1 7.9,-5.9 11.9,-4.4c5,1.8 1.4,5.8 -1.1,7.6c-1.5,1.1 -3,2.3 -4.1,3c-0.3,0.5 -0.4,1.1 -0.1,1.6z" fill="#36ff19" fill-rule="evenodd" stroke="#001026" stroke-width="1.2" stroke-linecap="round" stroke-linejoin="round"/><path d="M254.40904,130.88081c0.3,-0.2 0.8,-0.1 0.9,0.3l2.6,10.7c0,0 6.4,4.7 8.3,8c3.2,5.5 3.3,10 3.3,10c0,0 7.1,2.1 8.3,7.8c1.2,5.7 -3.2,16.5 -22,20.2c-18.8,3.7 -33.9,-1.4 -41,-12.8c-6.71857,-10.78756 2.94943,-23.54509 3.4992,-24.20683l-0.9771,-8.32862c2.76406,-0.90563 5.21472,-2.75738 6.84939,-5.38234l4.92851,3.21779c0,0 4.5,-1.7 9.2,-1.9c2.8,-0.2 5.2,0 7.5,0.4zM218.30824,150.87398l0.0008,0.00683c0.03223,-0.04298 0.03041,-0.0444 -0.0008,-0.00683z" fill="#36ff19" fill-rule="nonzero" stroke="#001026" stroke-width="1.2" stroke-linecap="butt" stroke-linejoin="miter"/><path d="M269.20904,160.28081c0,0 6.9,1.8 8.1,7.5c1.2,5.7 -3.6,16 -22.2,19.6c-24.2,5 -35.7,-9.4 -29,-20c6.7,-10.7 18.2,-1.6 26.6,-2.2c7.2,-0.5 8,-6.8 16.5,-4.9z" fill="#ffffff" fill-rule="evenodd" stroke="none" stroke-width="1" stroke-linecap="butt" stroke-linejoin="miter"/><path d="M287.60904,161.38081c-4.7,3.8 -11.9,3.9 -11.9,3.9" fill="none" fill-rule="evenodd" stroke="#001026" stroke-width="1.2" stroke-linecap="round" stroke-linejoin="round"/><path d="M286.30904,172.58081c-6.3,0.5 -10.2,-1.4 -10.2,-1.4" fill="none" fill-rule="evenodd" stroke="#001026" stroke-width="1.2" stroke-linecap="round" stroke-linejoin="round"/><path d="M252.30904,162.58081c2.1,0 4.3,0.2 4.4,0.9c0.1,1.4 -1.4,4.2 -3,4.3c-1.8,0.2 -6,-2.3 -6,-3.9c-0.1,-1.2 2.6,-1.3 4.6,-1.3z" fill="#001026" fill-rule="evenodd" stroke="#001026" stroke-width="1.2" stroke-linecap="round" stroke-linejoin="round"/><path d="M207.30904,161.08081c0,0 8.6,2.8 12.1,5.9" fill="none" fill-rule="evenodd" stroke="#001026" stroke-width="1.2" stroke-linecap="round" stroke-linejoin="round"/><path d="M219.70904,170.48081c-4.3,1.7 -11.7,0.6 -11.7,0.6" fill="none" fill-rule="evenodd" stroke="#001026" stroke-width="1.2" stroke-linecap="round" stroke-linejoin="round"/><g fill-rule="evenodd"><path d="M264.10904,150.88081c2.9,4.5 3,9.6 0.2,11.4c-2.8,1.8 -7.4,-0.3 -10.4,-4.8c-2.9,-4.5 -3,-9.6 -0.2,-11.4c2.8,-1.9 7.5,0.3 10.4,4.8z" fill="#ffffff" stroke="#001026" stroke-width="1.2" stroke-linecap="round" stroke-linejoin="round"/><path d="M263.70904,156.58081c0,1.1 -0.8,2 -1.8,2c-1,0 -1.8,-0.9 -1.8,-2c0,-1.1 0.8,-2 1.8,-2c1,0 1.8,0.9 1.8,2" fill="#001026" stroke="none" stroke-width="1" stroke-linecap="butt" stroke-linejoin="miter"/></g><g fill-rule="evenodd"><path d="M239.30904,153.68081c3,4.4 2.8,9.8 0.1,11.7c-3.3,1.9 -7.7,0.5 -10.7,-3.9c-3.1,-4.4 -3.3,-10.1 -0.2,-12.3c3.1,-2.3 7.8,0.1 10.8,4.5z" fill="#ffffff" stroke="#001026" stroke-width="1.2" stroke-linecap="round" stroke-linejoin="round"/><path d="M238.70904,159.48081c0,1.1 -0.8,2 -1.8,2c-1,0 -1.8,-0.9 -1.8,-2c0,-1.1 0.8,-2 1.8,-2c1,0.1 1.8,0.9 1.8,2" fill="#001026" stroke="none" stroke-width="1" stroke-linecap="butt" stroke-linejoin="miter"/></g><path d="M223.75407,137.77835c-0.34656,0.53559 -5.46078,9.15553 -7.50516,12.60325c-0.51507,0.86864 -0.67091,0.54896 -0.44661,-0.62829c0.47696,-2.50332 1.22492,-6.44112 1.23981,-6.59501c0.08312,-0.85892 0.09958,-1.51725 0.99596,-2.16248c1.43292,-1.03144 4.21658,-3.4824 5.02407,-3.94382c0.77339,-0.44194 1.24124,-0.12256 0.69194,0.72636z" fill="url(#color-1)" fill-rule="nonzero" stroke="#001026" stroke-width="1.2" stroke-linecap="round" stroke-linejoin="miter"/><path d="M247.13503,177.90201c0,0 -2.20952,0.21521 -3.33129,0.0806c-0.9913,-0.11896 -3.05644,-0.84713 -3.05644,-0.84713" fill="none" fill-rule="nonzero" stroke="#001026" stroke-width="1.2" stroke-linecap="round" stroke-linejoin="miter"/><path d="M192.99974,193.68167c-0.02838,-0.35911 1.7316,0.20054 1.7316,0.20054c0,0 -0.49272,-4.1071 0.12136,-4.80167c0.62291,-0.70456 2.93692,1.75148 2.93692,1.75148l0.62309,-1.83403c0,0 1.92607,3.13455 2.34663,3.80015c0.81612,1.29164 1.68011,2.85241 2.78052,4.35912c-0.01665,0.00533 -0.03327,0.01076 -0.04983,0.01628c-3.32268,0 -5.59508,2.66146 -6.35083,5.53386c-2.51381,-2.96061 -3.94531,-6.56922 -4.13945,-9.02573z" fill="#ffffff" fill-rule="nonzero" stroke="#001026" stroke-width="0" stroke-linecap="butt" stroke-linejoin="miter"/></g></g></svg>